<?xml version="1.0" encoding="UTF-8" standalone="no"?><!DOCTYPE svg PUBLIC "-//W3C//DTD SVG 1.1//EN" "http://www.w3.org/Graphics/SVG/1.1/DTD/svg11.dtd"><svg width="100%" height="100%" viewBox="0 0 512 512" version="1.1" xmlns="http://www.w3.org/2000/svg" xmlns:xlink="http://www.w3.org/1999/xlink" xml:space="preserve" xmlns:serif="http://www.serif.com/" style="fill-rule:evenodd;clip-rule:evenodd;stroke-linejoin:round;stroke-miterlimit:2;"><g id="Artboard1"><path d="M64,328.06l-0,-69.766c26.526,-48.361 61.31,-72.541 104.352,-72.541c15.015,0 30.78,3.527 47.296,10.579c16.516,7.053 40.039,21.057 70.569,42.013c17.267,11.687 30.217,19.344 38.85,22.971c8.634,3.627 17.33,5.441 26.088,5.441c16.266,-0 33.095,-7.859 50.487,-23.576c17.392,-15.717 32.845,-35.464 46.358,-59.241l0,73.998c-16.016,24.18 -32.219,41.711 -48.61,52.592c-16.391,10.881 -34.847,16.321 -55.367,16.321c-15.014,0 -29.341,-2.821 -42.979,-8.463c-13.638,-5.642 -35.284,-19.142 -64.938,-40.502c-29.654,-21.359 -54.366,-32.038 -74.135,-32.038c-16.016,-0 -31.093,5.541 -45.232,16.624c-14.139,11.082 -31.718,32.945 -52.739,65.588Z" style="fill-rule:nonzero;"/></g></svg>