<?xml version="1.0" encoding="UTF-8" standalone="no"?><!DOCTYPE svg PUBLIC "-//W3C//DTD SVG 1.1//EN" "http://www.w3.org/Graphics/SVG/1.1/DTD/svg11.dtd"><svg width="100%" height="100%" viewBox="0 0 512 512" version="1.1" xmlns="http://www.w3.org/2000/svg" xmlns:xlink="http://www.w3.org/1999/xlink" xml:space="preserve" xmlns:serif="http://www.serif.com/" style="fill-rule:evenodd;clip-rule:evenodd;stroke-linejoin:round;stroke-miterlimit:2;"><g id="Artboard1"><path d="M64,310.06l0,-61.95c26.526,-30.029 61.31,-45.044 104.352,-45.044c15.015,-0 30.78,2.19 47.296,6.569c16.516,4.379 40.039,13.075 70.569,26.088c17.267,7.257 30.217,12.012 38.85,14.264c8.634,2.252 17.33,3.378 26.088,3.378c16.266,0 33.095,-4.88 50.487,-14.639c17.392,-9.76 32.845,-22.022 46.358,-36.786l-0,64.578c-16.016,15.014 -32.219,25.9 -48.61,32.656c-16.391,6.757 -34.847,10.135 -55.367,10.135c-15.014,0 -29.341,-1.751 -42.979,-5.255c-13.638,-3.503 -35.284,-11.886 -64.938,-25.149c-29.654,-13.263 -54.366,-19.895 -74.135,-19.895c-16.016,0 -31.093,3.441 -45.232,10.323c-14.139,6.882 -31.718,20.457 -52.739,40.727Z" style="fill-rule:nonzero;"/></g></svg>