<?xml version="1.0" encoding="UTF-8" standalone="no"?>
<!DOCTYPE svg PUBLIC "-//W3C//DTD SVG 1.1//EN" "http://www.w3.org/Graphics/SVG/1.1/DTD/svg11.dtd">
<svg width="100%" height="100%" viewBox="0 0 512 512" version="1.1" xmlns="http://www.w3.org/2000/svg" xmlns:xlink="http://www.w3.org/1999/xlink" xml:space="preserve" xmlns:serif="http://www.serif.com/" style="fill-rule:evenodd;clip-rule:evenodd;stroke-linejoin:round;stroke-miterlimit:2;">
  <path d="M161.28,469.333c-24.889,-0 -46.065,-8.709 -63.531,-26.133c-17.451,-17.423 -26.176,-38.571 -26.176,-63.445l-0,-250.709c-0,-24.874 8.725,-46.022 26.176,-63.445c17.466,-17.424 38.642,-26.134 63.531,-26.134l47.189,0c7.225,-22.186 21.617,-39.865 43.16,-53.034c21.544,-13.169 45.787,-19.753 72.73,-19.753c26.944,0 51.187,6.584 72.731,19.753c21.543,13.169 35.935,30.848 43.16,53.034l47.188,0c24.889,0 46.066,8.71 63.531,26.134c17.452,17.423 26.177,38.571 26.177,63.445l-0,250.709c-0,24.874 -8.725,46.022 -26.177,63.445c-17.465,17.424 -38.642,26.133 -63.531,26.133l-326.158,-0Zm0,-89.685l326.158,0l-0,-250.709l-326.158,-0l-0,250.709Zm163.079,-271.019c10.241,-0 18.966,-3.543 26.176,-10.629c7.225,-7.086 10.837,-15.71 10.837,-25.872c-0,-10.163 -3.612,-18.815 -10.837,-25.958c-7.21,-7.143 -15.935,-10.715 -26.176,-10.715c-10.242,0 -18.995,3.572 -26.262,10.715c-7.268,7.143 -10.902,15.795 -10.902,25.958c-0,10.162 3.634,18.786 10.902,25.872c7.267,7.086 16.02,10.629 26.262,10.629Zm-163.079,271.019l-0,-250.709l-0,250.709Z" style="fill-rule:nonzero;"/>
</svg>
