<?xml version="1.0" encoding="UTF-8" standalone="no"?><!DOCTYPE svg PUBLIC "-//W3C//DTD SVG 1.1//EN" "http://www.w3.org/Graphics/SVG/1.1/DTD/svg11.dtd"><svg width="100%" height="100%" viewBox="0 0 2134 2134" version="1.1" xmlns="http://www.w3.org/2000/svg" xmlns:xlink="http://www.w3.org/1999/xlink" xml:space="preserve" xmlns:serif="http://www.serif.com/" style="fill-rule:evenodd;clip-rule:evenodd;stroke-linejoin:round;stroke-miterlimit:2;"><path d="M462.222,1393.33c26.667,0 50,10 70,30c20,20 30,43.334 30,70l0,184.445c0,26.666 -10,50 -30,70c-20,20 -43.333,30 -70,30l-184.444,-0c-26.667,-0 -50,-10 -70,-30c-20,-20 -30,-43.334 -30,-70l-0,-184.445c-0,-26.666 10,-50 30,-70c20,-20 43.333,-30 70,-30l184.444,0Zm0,-520c26.667,0 50,10 70,30c20,20 30,43.334 30,70l0,186.667c0,26.667 -10,50 -30,70c-20,20 -43.333,30 -70,30l-184.444,0c-26.667,0 -50,-10 -70,-30c-20,-20 -30,-43.333 -30,-70l-0,-186.667c-0,-26.666 10,-50 30,-70c20,-20 43.333,-30 70,-30l184.444,0Zm1360,-517.777c35.556,-0 66.667,13.333 93.334,40c26.666,26.666 40,57.777 40,93.333l-0,1155.56c-0,35.556 -13.334,66.667 -40,93.334c-26.667,26.666 -57.778,40 -93.334,40l-993.333,-0c-35.556,-0 -66.667,-13.334 -93.333,-40c-26.667,-26.667 -40,-57.778 -40,-93.334l-0,-1155.56c-0,-35.556 13.333,-66.667 40,-93.333c26.666,-26.667 57.777,-40 93.333,-40l993.333,-0Zm-1360,-0c26.667,-0 50,10 70,30c20,20 30,43.333 30,70l0,184.444c0,26.667 -10,50 -30,70c-20,20 -43.333,30 -70,30l-184.444,0c-26.667,0 -50,-10 -70,-30c-20,-20 -30,-43.333 -30,-70l-0,-184.444c-0,-26.667 10,-50 30,-70c20,-20 43.333,-30 70,-30l184.444,-0Z" style="fill-rule:nonzero;"/></svg>