<?xml version="1.0" encoding="UTF-8" standalone="no"?>
<!DOCTYPE svg PUBLIC "-//W3C//DTD SVG 1.1//EN" "http://www.w3.org/Graphics/SVG/1.1/DTD/svg11.dtd">
<svg width="100%" height="100%" viewBox="0 0 800 800" version="1.1" xmlns="http://www.w3.org/2000/svg" xmlns:xlink="http://www.w3.org/1999/xlink" xml:space="preserve" xmlns:serif="http://www.serif.com/" style="fill-rule:evenodd;clip-rule:evenodd;stroke-linejoin:round;stroke-miterlimit:2;">
    <g transform="matrix(2.25273,-0.283138,0.283138,2.25273,-254.156,296.994)">
        <path d="M210.389,125.195C211.224,124.184 211.826,123.459 211.981,123.276C213.165,121.886 222.965,110.712 224.047,109.521C230.523,102.393 240.527,91.928 241.976,90.412C252.644,79.252 256.376,75.617 263.144,69.088C284.773,48.223 297.584,37.51 300.86,34.723C317.965,20.174 329.689,11.333 332.266,9.389C374.756,-22.655 407.145,-39.962 418.22,-45.85C423.153,-48.473 426.827,-50.337 426.835,-50.341C428.423,-50.969 429.923,-51.906 431.601,-52.222C432.366,-52.366 436.792,-53.201 441.151,-50.316C441.821,-49.872 445.652,-47.337 446.731,-41.953C446.884,-41.189 447.775,-36.74 444.824,-32.403C444.475,-31.889 444.146,-31.407 439.156,-27.091C406.766,0.921 382.754,27.964 382.252,28.517C380.138,30.849 370.565,41.405 356.609,58.355C354.102,61.4 346.052,71.042 329.254,93.451C317.883,108.618 311.594,117.911 305.075,127.086C293.349,143.589 287.159,153.141 282.473,159.868C277.148,167.513 277.246,167.576 271.825,175.155C267.189,181.637 267.26,181.686 263.666,186.452C259.475,192.009 259.543,192.057 255.221,197.514C250.095,203.988 250.116,204.003 249.659,204.558C249.104,205.233 248.52,205.884 247.959,206.555C246.963,207.745 246.018,208.979 244.989,210.141C243.491,211.83 242.054,213.588 240.381,215.104C239.585,215.825 235.333,219.679 229.033,222.273C228.047,222.679 222.778,224.85 216.02,225.155C214.963,225.203 209.311,225.458 202.895,223.471C200.791,222.82 198.757,221.942 196.777,220.978C196.617,220.9 191.334,217.548 191.222,217.453C189.553,216.047 187.888,214.618 186.422,213.003C184.965,211.397 183.607,209.68 182.484,207.825C178.486,201.22 174.77,194.445 171.081,187.662C166.771,179.737 162.504,171.784 158.49,163.705C143.55,133.636 143.637,133.59 130.252,102.794C128.211,98.097 127.781,94.135 127.696,93.357C127.395,90.584 127.503,87.736 128.017,84.994C129.195,78.706 132.134,75.434 132.736,74.763C132.743,74.756 135.346,72.454 135.35,72.452C136.383,71.918 137.363,71.264 138.45,70.852C139.293,70.533 143.404,68.977 149.696,70.155C152.438,70.669 155.131,71.599 157.608,72.883C158.302,73.243 161.84,75.078 165.48,78.681C171.1,84.244 176.847,89.683 182.331,95.38C199.291,112.997 206.944,121.36 210.389,125.195Z"/>
    </g>
</svg>
