<?xml version="1.0" encoding="UTF-8" standalone="no"?><!DOCTYPE svg PUBLIC "-//W3C//DTD SVG 1.1//EN" "http://www.w3.org/Graphics/SVG/1.1/DTD/svg11.dtd"><svg width="100%" height="100%" viewBox="0 0 8892 8892" version="1.1" xmlns="http://www.w3.org/2000/svg" xmlns:xlink="http://www.w3.org/1999/xlink" xml:space="preserve" xmlns:serif="http://www.serif.com/" style="fill-rule:evenodd;clip-rule:evenodd;stroke-linejoin:round;stroke-miterlimit:2;"><path d="M6870.68,8891.67c561.392,-0 1038.58,-197.48 1431.58,-592.442c392.938,-394.958 589.409,-874.525 589.409,-1438.7c-0,-564.221 -196.471,-1042.95 -589.409,-1436.2c-392.991,-393.291 -870.183,-589.937 -1431.58,-589.937l-4849.7,-0c-561.391,-0 -1038.58,197.479 -1431.57,592.437c-392.941,394.963 -589.412,874.525 -589.412,1438.7c0,564.225 196.471,1042.95 589.413,1436.2c392.987,393.296 870.179,589.942 1431.57,589.942l4849.7,-0Zm-1.437,-709.913l-4845.99,0c-361.817,0 -671.187,-128.587 -928.108,-385.766c-256.875,-257.175 -385.313,-568.463 -385.313,-933.867c0,-365.454 128.742,-676.467 386.221,-933.033c257.479,-256.521 565.788,-384.78 924.925,-384.78l4845.99,0c366.162,0 676.846,128.513 932.05,385.538c255.204,257.075 382.808,568.237 382.808,933.487c0,365.25 -127.904,676.313 -383.717,933.188c-255.762,256.821 -565.383,385.233 -928.866,385.233Zm-580.921,-734.241c-157.438,-159.409 -236.158,-353.934 -236.158,-583.571c-0,-229.642 79.021,-424.471 237.066,-584.484c158.096,-160.016 352.696,-240.025 583.8,-240.025c231.159,0 426.642,79.704 586.455,239.113c159.862,159.412 239.795,353.933 239.795,583.575c0,229.641 -80.237,424.467 -240.704,584.483c-160.421,160.013 -356.183,240.021 -587.287,240.021c-231.154,0 -425.479,-79.704 -582.967,-239.112Z" style="fill-rule:nonzero;"/><path d="M2020.98,4057.28c-561.391,0 -1038.58,-197.479 -1431.57,-592.442c-392.942,-394.958 -589.413,-874.525 -589.413,-1438.69c0,-564.221 196.471,-1042.95 589.413,-1436.2c392.987,-393.292 870.179,-589.942 1431.57,-589.942l4849.7,0c561.392,0 1038.58,197.483 1431.58,592.442c392.938,394.962 589.409,874.525 589.409,1438.7c-0,564.224 -196.471,1042.95 -589.409,1436.19c-392.991,393.296 -870.183,589.942 -1431.58,589.942l-4849.7,0Zm1.442,-709.913l4845.99,0c361.812,0 671.183,-128.587 928.108,-385.766c256.871,-257.175 385.308,-568.467 385.308,-933.867c0,-365.454 -128.741,-676.466 -386.22,-933.033c-257.48,-256.521 -565.788,-384.783 -924.925,-384.783l-4845.99,-0c-366.158,-0 -676.842,128.512 -932.05,385.537c-255.204,257.075 -382.808,568.242 -382.808,933.492c-0,365.25 127.908,676.312 383.72,933.187c255.759,256.821 565.384,385.234 928.867,385.234Zm580.917,-734.242c157.441,-159.409 236.158,-353.934 236.158,-583.575c0,-229.638 -79.021,-424.467 -237.067,-584.479c-158.095,-160.017 -352.695,-240.025 -583.8,-240.025c-231.154,-0 -426.637,79.704 -586.454,239.112c-159.862,159.409 -239.796,353.934 -239.796,583.575c0,229.638 80.238,424.467 240.709,584.484c160.416,160.012 356.179,240.02 587.283,240.02c231.158,0 425.479,-79.704 582.967,-239.112Z" style="fill-rule:nonzero;"/></svg>