<?xml version="1.0" encoding="UTF-8" standalone="no"?><!DOCTYPE svg PUBLIC "-//W3C//DTD SVG 1.1//EN" "http://www.w3.org/Graphics/SVG/1.1/DTD/svg11.dtd"><svg width="100%" height="100%" viewBox="0 0 9375 9375" version="1.1" xmlns="http://www.w3.org/2000/svg" xmlns:xlink="http://www.w3.org/1999/xlink" xml:space="preserve" xmlns:serif="http://www.serif.com/" style="fill-rule:evenodd;clip-rule:evenodd;stroke-linejoin:round;stroke-miterlimit:2;"><path d="M7112.35,9133.33l-4849.7,0c-561.392,0 -1038.58,-196.645 -1431.57,-589.941c-392.942,-393.242 -589.412,-871.971 -589.412,-1436.2c-0,-564.171 196.47,-1043.73 589.412,-1438.7c392.988,-394.958 870.179,-777.625 1431.57,-777.625l4849.7,0c561.392,0 1038.58,196.646 1431.58,589.938c392.937,393.241 589.408,1057.16 589.408,1621.38c0,564.171 -196.471,1043.74 -589.408,1438.7c-392.992,394.962 -870.183,592.441 -1431.58,592.441Zm741.033,-1296.3c197.267,-199.733 295.9,-443.466 295.9,-731.195c0,-287.734 -99.012,-531.846 -297.037,-732.338c-198.088,-200.496 -441.917,-300.742 -731.484,-300.742c-289.629,0 -534.566,99.867 -734.808,299.6c-200.3,199.734 -300.454,443.467 -300.454,731.2c0,287.73 100.533,531.842 301.596,732.338c201,200.492 446.283,300.742 735.85,300.742c289.629,-0 533.112,-99.871 730.437,-299.605Zm-5590.74,-3538.09c-561.392,-0 -1038.58,-197.48 -1431.57,-592.442c-392.942,-394.958 -589.413,-874.525 -589.413,-1438.7c0,-564.221 196.471,-1042.95 589.413,-1436.2c392.987,-393.291 870.179,-589.941 1431.57,-589.941l4849.7,-0c561.391,-0 1038.58,197.483 1431.58,592.441c392.937,394.963 589.408,874.525 589.408,1438.7c-0,564.225 -196.471,1042.95 -589.408,1436.2c-392.992,393.296 -870.184,589.942 -1431.58,589.942l-4849.7,-0Zm730.954,-1296.3c197.262,-199.734 295.896,-443.467 295.896,-731.196c-0,-287.734 -99.013,-531.846 -297.038,-732.338c-198.087,-200.496 -441.912,-300.741 -731.483,-300.741c-289.629,-0 -534.563,99.866 -734.804,299.6c-200.305,199.733 -300.459,443.466 -300.459,731.2c0,287.729 100.534,531.841 301.596,732.337c201,200.492 446.288,300.738 735.854,300.738c289.629,-0 533.109,-99.867 730.438,-299.6Z"/></svg>