<?xml version="1.0" encoding="UTF-8" standalone="no"?><!DOCTYPE svg PUBLIC "-//W3C//DTD SVG 1.1//EN" "http://www.w3.org/Graphics/SVG/1.1/DTD/svg11.dtd"><svg width="100%" height="100%" viewBox="0 0 2134 2134" version="1.1" xmlns="http://www.w3.org/2000/svg" xmlns:xlink="http://www.w3.org/1999/xlink" xml:space="preserve" xmlns:serif="http://www.serif.com/" style="fill-rule:evenodd;clip-rule:evenodd;stroke-linejoin:round;stroke-miterlimit:2;"><path d="M1603.85,2088.89c134.734,-0 249.26,-47.395 343.578,-142.186c94.305,-94.79 141.458,-209.886 141.458,-345.287c-0,-135.413 -47.153,-250.309 -141.458,-344.687c-94.318,-94.39 -208.844,-141.585 -343.578,-141.585l-1074.37,-0c-134.734,-0 -249.26,47.395 -343.577,142.185c-94.306,94.791 -141.459,209.886 -141.459,345.287c0,135.414 47.153,250.309 141.459,344.687c94.317,94.391 208.843,141.586 343.577,141.586l1074.37,-0Zm-0.345,-170.379l-1073.48,-0c-86.836,-0 -161.085,-30.861 -222.746,-92.584c-61.65,-61.722 -92.475,-136.431 -92.475,-224.128c0,-87.709 30.898,-162.352 92.693,-223.928c61.795,-61.565 135.789,-92.347 221.982,-92.347l1073.48,-0c87.879,-0 162.443,30.843 223.692,92.529c61.249,61.698 91.874,136.377 91.874,224.037c0,87.66 -30.697,162.315 -92.092,223.965c-61.383,61.637 -135.692,92.456 -222.928,92.456Zm-139.421,-176.218c-37.785,-38.258 -56.678,-84.944 -56.678,-140.057c0,-55.114 18.965,-101.873 56.896,-140.276c37.943,-38.404 84.647,-57.606 140.112,-57.606c55.478,0 102.394,19.129 140.749,57.387c38.367,38.259 57.551,84.944 57.551,140.058c-0,55.114 -19.257,101.872 -57.769,140.276c-38.501,38.403 -85.484,57.605 -140.949,57.605c-55.477,0 -102.115,-19.129 -139.912,-57.387Z" style="fill-rule:nonzero;"/><path d="M529.48,1018.19c-134.734,-0 -249.26,-47.395 -343.577,-142.186c-94.306,-94.79 -141.459,-209.886 -141.459,-345.287c0,-135.413 47.153,-250.309 141.459,-344.687c94.317,-94.39 208.843,-141.586 343.577,-141.586l1074.37,0c134.734,0 249.26,47.396 343.578,142.186c94.305,94.791 141.458,209.886 141.458,345.287c-0,135.414 -47.153,250.309 -141.458,344.687c-94.318,94.391 -208.844,141.586 -343.578,141.586l-1074.37,-0Zm0.346,-170.379l1073.48,-0c86.835,-0 161.084,-30.861 222.746,-92.584c61.649,-61.722 92.474,-136.432 92.474,-224.128c0,-87.709 -30.898,-162.352 -92.693,-223.928c-61.795,-61.565 -135.789,-92.348 -221.982,-92.348l-1073.48,0c-87.878,0 -162.442,30.843 -223.692,92.529c-61.249,61.698 -91.874,136.378 -91.874,224.038c0,87.66 30.698,162.315 92.093,223.965c61.382,61.637 135.692,92.456 222.928,92.456Zm139.42,-176.218c37.786,-38.258 56.678,-84.944 56.678,-140.058c0,-55.113 -18.965,-101.872 -56.896,-140.275c-37.943,-38.404 -84.647,-57.606 -140.112,-57.606c-55.477,0 -102.393,19.129 -140.749,57.387c-38.367,38.258 -57.551,84.944 -57.551,140.058c0,55.113 19.257,101.872 57.77,140.276c38.5,38.403 85.483,57.605 140.948,57.605c55.478,0 102.115,-19.129 139.912,-57.387Z" style="fill-rule:nonzero;"/></svg>