<?xml version="1.0" encoding="UTF-8" standalone="no"?>
<!DOCTYPE svg PUBLIC "-//W3C//DTD SVG 1.1//EN" "http://www.w3.org/Graphics/SVG/1.1/DTD/svg11.dtd">
<svg width="100%" height="100%" viewBox="0 0 242 242" version="1.1" xmlns="http://www.w3.org/2000/svg" xmlns:xlink="http://www.w3.org/1999/xlink" xml:space="preserve" xmlns:serif="http://www.serif.com/" style="fill-rule:evenodd;clip-rule:evenodd;stroke-linejoin:round;stroke-miterlimit:2;">
    <g transform="matrix(4.16667,0,0,4.16667,0,0)">
        <g>
            <g transform="matrix(0.940533,0,0,0.940533,1.72454,1.72454)">
                <rect x="10" y="10" width="38" height="38" style="fill:rgb(143,97,39);"/>
                <g transform="matrix(0.00252049,0,0,0.00252049,-4.36192,-1.23427)">
                    <path d="M5698.06,8095.25L5698.06,12610.8L13490.4,4457.17L9187.23,4457.17L5698.06,8095.25Z" style="fill:rgb(112,73,30);"/>
                </g>
                <g transform="matrix(0.00252049,0,0,0.00252049,18.6689,-1.23427)">
                    <path d="M-3439.38,17232.7L-3439.38,19533.6L-917.96,19533.6L11637,6396.43L11637,4457.17L9187.23,4457.17L-3439.38,17232.7Z" style="fill:rgb(112,73,30);"/>
                </g>
                <g transform="matrix(0.00252049,0,0,0.00252049,30.5025,10.5993)">
                    <path d="M-1073.24,14838.6L3568.93,14838.6L6942.09,11309.1L6942.09,6728.79L-1073.24,14838.6Z" style="fill:rgb(112,73,30);"/>
                </g>
            </g>
            <g>
                <g transform="matrix(0.976461,0,0,1,1.36526,0)">
                    <path d="M53.904,0C56.166,0 58,1.791 58,4C58,6.784 58,10 58,10L10,10L10,0L53.904,0Z" style="fill:rgb(173,126,78);"/>
                </g>
                <g transform="matrix(1,0,0,0.976461,0,1.36526)">
                    <path d="M58,10L58,53.904C58,56.166 56.209,58 54,58C51.216,58 48,58 48,58L48,10L58,10Z" style="fill:rgb(202,150,90);"/>
                </g>
                <g transform="matrix(0.976461,0,0,1,0,0)">
                    <path d="M48,48L48,58L4.096,58C1.834,58 -0,56.209 -0,54C0,51.216 0,48 0,48L48,48Z" style="fill:rgb(173,126,78);"/>
                </g>
                <g transform="matrix(1,0,0,0.976461,0,0)">
                    <path d="M10,0L10,48L0,48L0,4.096C0,1.834 1.791,-0 4,-0C6.784,0 10,0 10,0Z" style="fill:rgb(202,150,90);"/>
                </g>
            </g>
            <g>
                <circle cx="54" cy="3" r="1" style="fill:rgb(112,73,30);"/>
                <circle cx="50" cy="3" r="1" style="fill:rgb(112,73,30);"/>
                <circle cx="54" cy="7" r="1" style="fill:rgb(112,73,30);"/>
                <circle cx="50" cy="7" r="1" style="fill:rgb(112,73,30);"/>
                <circle cx="55" cy="54" r="1" style="fill:rgb(112,73,30);"/>
                <circle cx="55" cy="50" r="1" style="fill:rgb(112,73,30);"/>
                <circle cx="51" cy="54" r="1" style="fill:rgb(112,73,30);"/>
                <circle cx="51" cy="50" r="1" style="fill:rgb(112,73,30);"/>
                <circle cx="4" cy="55" r="1" style="fill:rgb(112,73,30);"/>
                <circle cx="8" cy="55" r="1" style="fill:rgb(112,73,30);"/>
                <circle cx="4" cy="51" r="1" style="fill:rgb(112,73,30);"/>
                <circle cx="8" cy="51" r="1" style="fill:rgb(112,73,30);"/>
                <circle cx="3" cy="4" r="1" style="fill:rgb(112,73,30);"/>
                <circle cx="3" cy="8" r="1" style="fill:rgb(112,73,30);"/>
                <circle cx="7" cy="4" r="1" style="fill:rgb(112,73,30);"/>
            </g>
        </g>
        <g transform="matrix(1,0,0,1,-3.55271e-15,1.24155)">
            <g transform="matrix(1,0,0,1,-0.170856,0.681561)">
                <path d="M19.468,34.364C19.091,33.296 18.887,32.146 18.887,30.95C18.887,25.274 23.495,20.665 29.171,20.665C34.847,20.665 39.455,25.274 39.455,30.95C39.455,32.146 39.25,33.296 38.874,34.364L19.468,34.364ZM47.041,30.087L47.041,31.813L42.379,31.813C41.903,31.813 41.516,31.426 41.516,30.95C41.516,30.473 41.903,30.087 42.379,30.087L47.041,30.087ZM44.528,24.58C44.71,25.02 44.501,25.525 44.061,25.708L41.702,26.686C41.262,26.869 40.756,26.66 40.574,26.22C40.391,25.78 40.6,25.275 41.04,25.092L43.4,24.113C43.84,23.931 44.345,24.14 44.528,24.58ZM35.532,15.589C35.972,15.772 36.182,16.277 35.999,16.717L35.022,19.077C34.84,19.517 34.334,19.726 33.894,19.544C33.454,19.362 33.245,18.857 33.427,18.416L34.404,16.057C34.587,15.616 35.092,15.407 35.532,15.589ZM22.814,15.588C23.254,15.405 23.759,15.615 23.941,16.055L24.918,18.415C25.1,18.855 24.891,19.361 24.451,19.543C24.01,19.725 23.505,19.515 23.323,19.075L22.347,16.715C22.164,16.275 22.374,15.77 22.814,15.588ZM13.816,24.576C13.999,24.136 14.504,23.927 14.944,24.109L17.303,25.089C17.743,25.271 17.952,25.777 17.769,26.217C17.587,26.657 17.081,26.866 16.641,26.683L14.282,25.704C13.842,25.521 13.633,25.016 13.816,24.576ZM42.627,17.494C42.964,17.83 42.964,18.377 42.627,18.714L39.121,22.22C38.784,22.557 38.237,22.557 37.9,22.22C37.563,21.884 37.563,21.337 37.9,21L41.406,17.494C41.743,17.157 42.29,17.157 42.627,17.494ZM29.171,11.92C29.647,11.92 30.034,12.307 30.034,12.783L30.034,17.742C30.034,18.218 29.647,18.605 29.171,18.605C28.695,18.605 28.308,18.218 28.308,17.742L28.308,12.783C28.308,12.307 28.695,11.92 29.171,11.92ZM15.715,17.494C16.052,17.157 16.598,17.157 16.935,17.494L20.442,21C20.778,21.337 20.778,21.884 20.442,22.22C20.105,22.557 19.558,22.557 19.221,22.22L15.715,18.714C15.378,18.377 15.378,17.83 15.715,17.494ZM11.301,31.813L11.301,30.087L15.963,30.087C16.439,30.087 16.826,30.473 16.826,30.95C16.826,31.426 16.439,31.813 15.963,31.813L11.301,31.813Z" style="fill:rgb(255,170,0);"/>
            </g>
            <g transform="matrix(1.15197,0,0,1.23273,-4.22176,-8.47293)">
                <path d="M38.931,40.98C38.931,41.37 38.592,41.687 38.174,41.687L19.504,41.687C19.087,41.687 18.748,41.37 18.748,40.98C18.748,40.59 19.087,40.273 19.504,40.273L38.174,40.273C38.592,40.273 38.931,40.59 38.931,40.98ZM42.457,37.632C42.457,38.023 42.118,38.34 41.7,38.34L15.978,38.34C15.56,38.34 15.221,38.023 15.221,37.632C15.221,37.242 15.56,36.925 15.978,36.925L41.7,36.925C42.118,36.925 42.457,37.242 42.457,37.632Z" style="fill:rgb(103,198,57);"/>
            </g>
        </g>
    </g>
</svg>
