<?xml version="1.0" encoding="UTF-8" standalone="no"?>
<!DOCTYPE svg PUBLIC "-//W3C//DTD SVG 1.1//EN" "http://www.w3.org/Graphics/SVG/1.1/DTD/svg11.dtd">
<svg width="100%" height="100%" viewBox="0 0 242 242" version="1.1" xmlns="http://www.w3.org/2000/svg" xmlns:xlink="http://www.w3.org/1999/xlink" xml:space="preserve" xmlns:serif="http://www.serif.com/" style="fill-rule:evenodd;clip-rule:evenodd;stroke-linejoin:round;stroke-miterlimit:2;">
    <g transform="matrix(4.16667,0,0,4.16667,0,0)">
        <g>
            <g transform="matrix(0.940533,0,0,0.940533,1.72454,1.72454)">
                <rect x="10" y="10" width="38" height="38" style="fill:rgb(143,97,39);"/>
                <g transform="matrix(0.00252049,0,0,0.00252049,-4.36192,-1.23427)">
                    <path d="M5698.06,8095.25L5698.06,12610.8L13490.4,4457.17L9187.23,4457.17L5698.06,8095.25Z" style="fill:rgb(112,73,30);"/>
                </g>
                <g transform="matrix(0.00252049,0,0,0.00252049,18.6689,-1.23427)">
                    <path d="M-3439.38,17232.7L-3439.38,19533.6L-917.96,19533.6L11637,6396.43L11637,4457.17L9187.23,4457.17L-3439.38,17232.7Z" style="fill:rgb(112,73,30);"/>
                </g>
                <g transform="matrix(0.00252049,0,0,0.00252049,30.5025,10.5993)">
                    <path d="M-1073.24,14838.6L3568.93,14838.6L6942.09,11309.1L6942.09,6728.79L-1073.24,14838.6Z" style="fill:rgb(112,73,30);"/>
                </g>
            </g>
            <g>
                <g transform="matrix(0.976461,0,0,1,1.36526,0)">
                    <path d="M53.904,0C56.166,0 58,1.791 58,4C58,6.784 58,10 58,10L10,10L10,0L53.904,0Z" style="fill:rgb(173,126,78);"/>
                </g>
                <g transform="matrix(1,0,0,0.976461,0,1.36526)">
                    <path d="M58,10L58,53.904C58,56.166 56.209,58 54,58C51.216,58 48,58 48,58L48,10L58,10Z" style="fill:rgb(202,150,90);"/>
                </g>
                <g transform="matrix(0.976461,0,0,1,0,0)">
                    <path d="M48,48L48,58L4.096,58C1.834,58 -0,56.209 -0,54C0,51.216 0,48 0,48L48,48Z" style="fill:rgb(173,126,78);"/>
                </g>
                <g transform="matrix(1,0,0,0.976461,0,0)">
                    <path d="M10,0L10,48L0,48L0,4.096C0,1.834 1.791,-0 4,-0C6.784,0 10,0 10,0Z" style="fill:rgb(202,150,90);"/>
                </g>
            </g>
            <g>
                <circle cx="54" cy="3" r="1" style="fill:rgb(112,73,30);"/>
                <circle cx="50" cy="3" r="1" style="fill:rgb(112,73,30);"/>
                <circle cx="54" cy="7" r="1" style="fill:rgb(112,73,30);"/>
                <circle cx="50" cy="7" r="1" style="fill:rgb(112,73,30);"/>
                <circle cx="55" cy="54" r="1" style="fill:rgb(112,73,30);"/>
                <circle cx="55" cy="50" r="1" style="fill:rgb(112,73,30);"/>
                <circle cx="51" cy="54" r="1" style="fill:rgb(112,73,30);"/>
                <circle cx="51" cy="50" r="1" style="fill:rgb(112,73,30);"/>
                <circle cx="4" cy="55" r="1" style="fill:rgb(112,73,30);"/>
                <circle cx="8" cy="55" r="1" style="fill:rgb(112,73,30);"/>
                <circle cx="4" cy="51" r="1" style="fill:rgb(112,73,30);"/>
                <circle cx="8" cy="51" r="1" style="fill:rgb(112,73,30);"/>
                <circle cx="3" cy="4" r="1" style="fill:rgb(112,73,30);"/>
                <circle cx="3" cy="8" r="1" style="fill:rgb(112,73,30);"/>
                <circle cx="7" cy="4" r="1" style="fill:rgb(112,73,30);"/>
            </g>
            <g transform="matrix(1.2653,0,0,1.2653,10.5439,-29.2125)">
                <path d="M17.175,40.397C18.013,40.397 18.302,40.657 18.302,41.38L18.302,42.19C18.302,42.739 18.187,42.913 17.579,43.202L11.564,46.151C10.581,46.643 10.379,47.25 10.379,48.234L10.379,50.316L15.671,50.316L15.729,49.072C15.758,48.667 15.844,48.436 16.249,48.262L21.31,46.007C23.421,45.081 24.086,44.04 24.086,41.958L24.086,40.165C24.086,37.476 23.161,35.481 19.257,35.481L5.087,35.481L5.087,35.712C5.665,37.274 6.272,38.835 6.88,40.397L17.175,40.397ZM15.613,56.533L15.613,51.733L10.379,51.733L10.379,56.533L15.613,56.533Z" style="fill:rgb(202,150,90);fill-rule:nonzero;"/>
                <path d="M5.087,35.712L5.087,35.481L19.257,35.481C23.161,35.481 24.086,37.476 24.086,40.165L24.086,41.958C24.086,44.04 23.421,45.081 21.31,46.007L16.249,48.262C15.844,48.436 15.758,48.667 15.729,49.072L15.671,50.316L10.379,50.316L10.379,48.234C10.379,47.25 10.581,46.643 11.564,46.151L17.579,43.202C18.187,42.913 18.302,42.739 18.302,42.19L18.302,41.38C18.302,40.657 18.013,40.397 17.175,40.397L6.88,40.397C6.368,39.082 5.857,37.767 5.363,36.452C5.469,36.413 5.565,36.351 5.645,36.271L5.317,36.271L5.301,36.287C5.229,36.095 5.158,35.904 5.087,35.712ZM6.139,36.271C6.558,37.383 6.988,38.495 7.42,39.606L17.175,39.606C17.851,39.606 18.289,39.773 18.574,40.023C18.895,40.305 19.093,40.726 19.093,41.38L19.093,42.19C19.093,42.677 19,42.987 18.814,43.25C18.652,43.479 18.394,43.688 17.926,43.912L11.916,46.859C11.662,46.986 11.48,47.114 11.363,47.276C11.182,47.527 11.169,47.839 11.169,48.234L11.169,49.525L14.916,49.525L14.939,49.035L14.94,49.016C14.971,48.579 15.077,48.267 15.284,48.01C15.428,47.831 15.627,47.671 15.928,47.54L20.988,45.285L20.993,45.283C21.877,44.895 22.474,44.507 22.835,43.974C23.186,43.454 23.296,42.809 23.296,41.958L23.296,40.165C23.296,39.032 23.143,38.034 22.536,37.33C21.932,36.629 20.897,36.271 19.257,36.271L6.139,36.271ZM15.613,56.533L10.379,56.533L10.379,51.733L15.613,51.733L15.613,56.533ZM14.823,55.743L14.823,52.523L11.169,52.523L11.169,55.743L14.823,55.743Z" style="fill:rgb(255,205,153);"/>
            </g>
        </g>
    </g>
</svg>
