<?xml version="1.0" encoding="UTF-8" standalone="no"?>
<!DOCTYPE svg PUBLIC "-//W3C//DTD SVG 1.1//EN" "http://www.w3.org/Graphics/SVG/1.1/DTD/svg11.dtd">
<svg width="100%" height="100%" viewBox="0 0 2375 3334" version="1.1" xmlns="http://www.w3.org/2000/svg" xmlns:xlink="http://www.w3.org/1999/xlink" xml:space="preserve" xmlns:serif="http://www.serif.com/" style="fill-rule:evenodd;clip-rule:evenodd;stroke-linejoin:round;stroke-miterlimit:2;">
    <g transform="matrix(4.16667,0,0,4.16667,0,0)">
        <g id="Artboard1" transform="matrix(1,0,0,1,-115.025,3.55271e-15)">
            <rect x="115.025" y="-0" width="569.949" height="800.002" style="fill:none;"/>
            <clipPath id="_clip1">
                <rect x="115.025" y="-0" width="569.949" height="800.002"/>
            </clipPath>
            <g clip-path="url(#_clip1)">
                <g transform="matrix(3.93991,0,0,5.34547,-1082.74,-20.0538)">
                    <path d="M360.044,140.626L360.044,131.438L392.644,131.437L392.644,141.51L376.919,153.598L360.044,140.626ZM367.658,138.37L376.919,145.489L385.03,139.254L385.03,137.05L367.658,137.05L367.658,138.37ZM376.344,3.939L392.644,16.469L392.644,26.099L360.044,26.099L360.044,16.469L376.344,3.939ZM376.344,12.048L367.658,18.725L367.658,20.487L385.03,20.487L385.03,18.725L376.344,12.048Z"/>
                </g>
                <g transform="matrix(0.0120647,0,0,0.0120647,-80.8511,-79.8756)">
                    <path d="M22913.9,31743.7L35463.2,18703.4L63478.8,18702.9L51020.6,31697.2L43766.2,31697.3L33342.1,42604.7L22914,42604.9L22913.9,31743.7ZM25400.5,32745.8L25400.6,40118.3L32278.9,40118.1L41968.5,29979.3C42437.7,29488.4 43087.1,29210.7 43766.2,29210.7L49959.8,29210.6L57649.9,21189.6L36521.3,21190L25400.5,32745.8ZM56802.7,47972.7L44253.2,61013L16237.6,61013.4L28695.9,48019.1L35950.4,48019.1L46374.4,37111.7L56802.5,37111.5L56802.7,47972.7ZM54316.1,46970.6L54315.9,39598.1L47437.6,39598.3L37748.1,49737.1C37278.9,50228 36629.4,50505.7 35950.4,50505.7L29756.7,50505.7L22066.5,58526.7L43195.2,58526.4L54316.1,46970.6Z"/>
                </g>
            </g>
        </g>
    </g>
</svg>
