<?xml version="1.0" encoding="UTF-8" standalone="no"?>
<!DOCTYPE svg PUBLIC "-//W3C//DTD SVG 1.1//EN" "http://www.w3.org/Graphics/SVG/1.1/DTD/svg11.dtd">
<svg width="100%" height="100%" viewBox="0 0 2375 3334" version="1.1" xmlns="http://www.w3.org/2000/svg" xmlns:xlink="http://www.w3.org/1999/xlink" xml:space="preserve" xmlns:serif="http://www.serif.com/" style="fill-rule:evenodd;clip-rule:evenodd;stroke-linejoin:round;stroke-miterlimit:2;">
    <g transform="matrix(4.16667,0,0,4.16667,0,0)">
        <g id="Artboard1" transform="matrix(1,0,0,1,-115.025,3.55271e-15)">
            <rect x="115.025" y="-0" width="569.949" height="800.002" style="fill:none;"/>
            <clipPath id="_clip1">
                <rect x="115.025" y="-0" width="569.949" height="800.002"/>
            </clipPath>
            <g clip-path="url(#_clip1)">
                <g transform="matrix(3.93991,0,0,5.34547,-1082.74,-20.0538)">
                    <path d="M360.044,140.626L360.044,131.438L392.644,131.437L392.644,141.51L376.919,153.598L360.044,140.626ZM376.344,3.939L376.344,3.939L392.644,16.469L392.644,26.099L360.044,26.099L360.044,16.469L376.344,3.939Z"/>
                </g>
                <g transform="matrix(0.0120647,0,0,0.0120647,-80.8511,-79.8756)">
                    <path d="M22913.9,31743.7L22914,42604.9L33342.1,42604.7L43766.2,31697.3L51020.6,31697.2L63478.8,18702.9L35463.2,18703.4L22913.9,31743.9L22913.9,31743.7ZM56802.7,47972.7L56802.5,37111.5L46374.4,37111.7L35950.4,48019.1L28695.9,48019.1L16237.6,61013.4L44253.2,61013L56802.6,47972.6L56802.7,47972.6L56802.7,47972.7Z"/>
                </g>
            </g>
        </g>
    </g>
</svg>
