<?xml version="1.0" encoding="UTF-8" standalone="no"?><!DOCTYPE svg PUBLIC "-//W3C//DTD SVG 1.1//EN" "http://www.w3.org/Graphics/SVG/1.1/DTD/svg11.dtd"><svg width="100%" height="100%" viewBox="0 0 79725 79725" version="1.1" xmlns="http://www.w3.org/2000/svg" xmlns:xlink="http://www.w3.org/1999/xlink" xml:space="preserve" xmlns:serif="http://www.serif.com/" style="fill-rule:evenodd;clip-rule:evenodd;stroke-linejoin:round;stroke-miterlimit:2;"><circle cx="39858.2" cy="39858.2" r="39866.8" style="fill:url(#_Radial1);"/><clipPath id="_clip2"><circle cx="39858.2" cy="39858.2" r="39866.8"/></clipPath><g clip-path="url(#_clip2)"><path d="M15275.7,7016.78c17711.4,-13885.5 43364,-10779.3 57249.5,6932.06c13885.5,17711.4 10779.3,43364 -6932.06,57249.5c-17711.4,13885.5 -43364,10779.3 -57249.5,-6932.06c-13885.5,-17711.4 -10779.3,-43364 6932.06,-57249.5Z" style="fill:url(#_Radial3);"/></g><circle cx="39858.2" cy="39858.2" r="37909.2" style="fill:url(#_Radial4);"/><clipPath id="_clip5"><path d="M39858.2,77767.4c-20922.7,-0 -37909.2,-16986.5 -37909.2,-37909.2c-0,-20922.7 16986.5,-37909.2 37909.2,-37909.2c20922.7,-0 37909.2,16986.5 37909.2,37909.2c-0,20922.7 -16986.5,37909.2 -37909.2,37909.2Zm4.333,-71408.9c-18491.4,0 -33504.1,15012.7 -33504.1,33504.1c0,18491.4 15012.7,33504.1 33504.1,33504.1c18491.4,-0 33504.1,-15012.7 33504.1,-33504.1c-0,-18491.4 -15012.7,-33504.1 -33504.1,-33504.1Z"/></clipPath><g clip-path="url(#_clip5)"><g opacity="0.8"><path d="M39858.2,77767.4c-20922.7,-0 -37909.2,-16986.5 -37909.2,-37909.2c-0,-20922.7 16986.5,-37909.2 37909.2,-37909.2c20922.7,-0 37909.2,16986.5 37909.2,37909.2c-0,20922.7 -16986.5,37909.2 -37909.2,37909.2Zm4.333,-71408.9c-18491.4,0 -33504.1,15012.7 -33504.1,33504.1c0,18491.4 15012.7,33504.1 33504.1,33504.1c18491.4,-0 33504.1,-15012.7 33504.1,-33504.1c-0,-18491.4 -15012.7,-33504.1 -33504.1,-33504.1Z" style="fill:url(#_Radial6);"/><clipPath id="_clip7"><path d="M39858.2,77767.4c-20922.7,-0 -37909.2,-16986.5 -37909.2,-37909.2c-0,-20922.7 16986.5,-37909.2 37909.2,-37909.2c20922.7,-0 37909.2,16986.5 37909.2,37909.2c-0,20922.7 -16986.5,37909.2 -37909.2,37909.2Zm4.333,-71408.9c-18491.4,0 -33504.1,15012.7 -33504.1,33504.1c0,18491.4 15012.7,33504.1 33504.1,33504.1c18491.4,-0 33504.1,-15012.7 33504.1,-33504.1c-0,-18491.4 -15012.7,-33504.1 -33504.1,-33504.1Z"/></clipPath><g clip-path="url(#_clip7)"><path d="M63233.6,71086.9c-16841.7,13203.6 -41234.7,10250 -54438.3,-6591.67c-13203.6,-16841.7 -10250,-41234.7 6591.67,-54438.3c16841.7,-13203.6 41234.7,-10250 54438.3,6591.67c13203.6,16841.7 10250,41234.7 -6591.67,54438.3Z" style="fill:url(#_Radial8);"/></g></g></g><path d="M39858.2,1002.89c-21444.9,-0 -38855.3,17410.5 -38855.3,38855.3c-0,21444.9 17410.5,38855.3 38855.3,38855.3c21444.9,-0 38855.3,-17410.5 38855.3,-38855.3c-0,-21444.9 -17410.5,-38855.3 -38855.3,-38855.3Zm-0,4583.65c18915.1,-0 34271.7,15356.6 34271.7,34271.7c0,18915.1 -15356.6,34271.7 -34271.7,34271.7c-18915.1,-0 -34271.7,-15356.6 -34271.7,-34271.7c0,-18915.1 15356.6,-34271.7 34271.7,-34271.7Z" style="fill:url(#_Radial9);"/><path d="M22913.9,31743.7l0.085,10861.2l10428.1,-0.171l10424.1,-10907.4l7254.42,-0.086l12458.2,-12994.3l-28015.6,0.407l-12549.3,13040.5l0.016,-0l-0.02,-0.028Zm33888.8,16229l-0.236,-10861.2l-10428.1,0.15l-10424,10907.4l-7254.42,0.086l-12458.3,12994.3l28015.6,-0.407l12549.4,-13040.4l0.069,-0l0.004,0.008Z" style="fill:url(#_Radial10);"/><defs><radialGradient id="_Radial1" cx="0" cy="0" r="1" gradientUnits="userSpaceOnUse" gradientTransform="matrix(-64568.8,111836,-90608.8,-52312.8,70917,-14902.6)"><stop offset="0" style="stop-color:#d6b85c;stop-opacity:1"/><stop offset="1" style="stop-color:#523314;stop-opacity:1"/></radialGradient><radialGradient id="_Radial3" cx="0" cy="0" r="1" gradientUnits="userSpaceOnUse" gradientTransform="matrix(64181.6,-50317.5,50317.5,64181.6,8343.6,64266.3)"><stop offset="0" style="stop-color:#ffdcac;stop-opacity:0"/><stop offset="1" style="stop-color:#fff;stop-opacity:1"/></radialGradient><radialGradient id="_Radial4" cx="0" cy="0" r="1" gradientUnits="userSpaceOnUse" gradientTransform="matrix(-61398.2,106345,-86159.5,-49744,69391.9,-12213.6)"><stop offset="0" style="stop-color:#d6b85c;stop-opacity:1"/><stop offset="1" style="stop-color:#523314;stop-opacity:1"/></radialGradient><radialGradient id="_Radial6" cx="0" cy="0" r="1" gradientUnits="userSpaceOnUse" gradientTransform="matrix(61398.2,-106345,86159.5,49744,10324.5,91930)"><stop offset="0" style="stop-color:#d6b85c;stop-opacity:1"/><stop offset="1" style="stop-color:#523314;stop-opacity:1"/></radialGradient><radialGradient id="_Radial8" cx="0" cy="0" r="1" gradientUnits="userSpaceOnUse" gradientTransform="matrix(-61030,47846.7,-47846.7,-61030,69825.2,16648.6)"><stop offset="0" style="stop-color:#ffdcac;stop-opacity:0"/><stop offset="1" style="stop-color:#fff;stop-opacity:1"/></radialGradient><radialGradient id="_Radial9" cx="0" cy="0" r="1" gradientUnits="userSpaceOnUse" gradientTransform="matrix(-74645.8,129290,-104750,-60477,75764.1,-23890.5)"><stop offset="0" style="stop-color:#fff6cc;stop-opacity:1"/><stop offset="1" style="stop-color:#ffa647;stop-opacity:1"/></radialGradient><radialGradient id="_Radial10" cx="0" cy="0" r="1" gradientUnits="userSpaceOnUse" gradientTransform="matrix(-73928.5,128048,-103743,-59896.1,75419.2,-18802.1)"><stop offset="0" style="stop-color:#fff;stop-opacity:1"/><stop offset="1" style="stop-color:#ff9500;stop-opacity:1"/></radialGradient></defs></svg>