<?xml version="1.0" encoding="UTF-8" standalone="no"?>
<!DOCTYPE svg PUBLIC "-//W3C//DTD SVG 1.1//EN" "http://www.w3.org/Graphics/SVG/1.1/DTD/svg11.dtd">
<svg width="100%" height="100%" viewBox="0 0 800 800" version="1.1" xmlns="http://www.w3.org/2000/svg" xmlns:xlink="http://www.w3.org/1999/xlink" xml:space="preserve" xmlns:serif="http://www.serif.com/" style="fill-rule:evenodd;clip-rule:evenodd;stroke-linejoin:round;stroke-miterlimit:2;">
    <g transform="matrix(1.59993,0,0,1.59993,-239.971,-239.99)">
        <g transform="matrix(25,0,0,25,0,0)">
            <path d="M11.306,21.91C11.181,21.723 11.071,21.471 10.982,21.17C9.376,19.358 10.617,16.692 11.845,14.881C11.962,14.687 12.091,14.5 12.23,14.322C13.167,13.158 13.409,12.348 13.481,11.252C13.49,11.048 13.473,10.778 13.453,10.468C13.354,8.884 13.19,6.252 16.016,6.018C19.549,5.727 19.261,8.971 19.235,10.873C19.234,10.952 19.233,11.028 19.232,11.102C19.223,12.249 19.821,13.034 20.446,13.854C20.674,14.153 20.905,14.457 21.112,14.784C21.118,14.794 21.124,14.804 21.13,14.814C22.222,16.388 23.299,18.737 21.799,20.965C21.589,21.726 21.27,22.424 20.843,22.992C19.314,25.005 17.954,24.801 16.892,24.641C16.572,24.593 16.279,24.549 16.016,24.571C15.58,24.598 15.23,24.668 14.928,24.729C13.761,24.965 13.305,25.057 11.306,21.91Z" style="fill-rule:nonzero;"/>
        </g>
        <g transform="matrix(25,0,0,25,0,0)">
            <path d="M18.014,7.795C17.981,8.727 16.992,9.537 15.807,9.612C14.621,9.687 13.691,8.979 13.724,8.046C13.756,7.114 14.745,6.304 15.931,6.229C17.116,6.161 18.047,6.862 18.014,7.795Z" style="fill:url(#_Linear1);fill-rule:nonzero;"/>
        </g>
        <g transform="matrix(25,0,0,25,0,0)">
            <path d="M15.866,10.061C15.875,10.568 16.107,11 16.433,11.195C15.37,11.1 14.051,11.489 14.051,12.225C14.035,13.47 13.342,15.02 12.843,16.135C12.745,16.354 12.654,16.557 12.577,16.737C12.269,17.502 12.083,18.32 12.061,19.122C11.243,17.995 11.838,16.548 12.158,15.921C12.585,15.095 12.576,14.992 12.411,15.185C11.776,16.265 10.58,18.433 12.078,19.736C12.125,20.318 12.267,20.881 12.519,21.399C14.523,25.442 18.276,23.782 19.514,21.685C19.679,21.387 19.812,21.099 19.918,20.82C19.98,20.859 20.046,20.89 20.117,20.909C20.739,21.093 21.669,20.392 21.892,19.957C22.16,19.378 21.885,18.983 20.968,18.514C20.922,18.491 20.875,18.469 20.83,18.449C21.181,16.968 20.212,15.428 19.52,14.774C19.391,14.742 19.373,14.816 19.573,15.016C20.009,15.433 20.957,16.923 20.444,18.309C20.36,18.286 20.278,18.27 20.201,18.262C20.043,17.316 19.623,16.58 19.329,16.066C19.263,15.949 19.203,15.844 19.154,15.751C19.055,15.562 18.937,15.366 18.811,15.159C18.328,14.359 17.739,13.384 17.739,11.939C17.665,11.621 17.365,11.409 16.966,11.292C17.429,11.199 17.777,10.657 17.765,10.007C17.752,9.305 17.313,8.747 16.789,8.761C16.265,8.775 15.846,9.36 15.866,10.061ZM16.298,10.217C16.291,10.605 16.475,10.918 16.717,10.918C16.953,10.918 17.156,10.605 17.163,10.224C17.169,9.836 16.986,9.523 16.743,9.523C16.501,9.523 16.305,9.836 16.298,10.217Z" style="fill:url(#_Linear2);"/>
        </g>
        <g transform="matrix(25,0,0,25,0,0)">
            <path d="M14.556,11.15C14.935,11.129 15.211,10.619 15.178,10.013C15.145,9.408 14.811,8.938 14.431,8.958C14.051,8.979 13.776,9.489 13.809,10.095C13.842,10.701 14.176,11.17 14.556,11.15ZM14.785,10.224C14.818,10.544 14.7,10.816 14.529,10.844C14.359,10.864 14.195,10.626 14.163,10.306C14.13,9.986 14.248,9.714 14.418,9.687C14.588,9.666 14.752,9.904 14.785,10.224Z" style="fill:url(#_Linear3);"/>
        </g>
        <g transform="matrix(25,0,0,25,0,0)">
            <path d="M16.396,10C16.376,10.217 16.475,10.394 16.612,10.408C16.75,10.422 16.881,10.251 16.9,10.041C16.92,9.823 16.822,9.646 16.684,9.632C16.547,9.618 16.416,9.789 16.396,10Z" style="fill:url(#_Linear4);fill-rule:nonzero;"/>
        </g>
        <g transform="matrix(25,0,0,25,0,0)">
            <path d="M14.641,10.054C14.661,10.231 14.589,10.388 14.484,10.401C14.379,10.415 14.281,10.279 14.261,10.095C14.241,9.918 14.313,9.762 14.418,9.748C14.523,9.734 14.621,9.877 14.641,10.054Z" style="fill:url(#_Linear5);fill-rule:nonzero;"/>
        </g>
        <g transform="matrix(25,0,0,25,0,0)">
            <path d="M18.669,17.153C18.669,18.35 17.562,19.902 15.663,19.889C13.704,19.902 12.872,18.35 12.872,17.153C12.872,15.955 14.169,14.981 15.767,14.981C17.372,14.988 18.669,15.955 18.669,17.153Z" style="fill:url(#_Linear6);fill-rule:nonzero;"/>
        </g>
        <g transform="matrix(25,0,0,25,0,0)">
            <path d="M17.635,13.389C17.615,14.628 16.836,14.921 15.853,14.921C14.87,14.921 14.156,14.737 14.071,13.389C14.071,12.545 14.87,12.055 15.853,12.055C16.836,12.048 17.635,12.539 17.635,13.389Z" style="fill:url(#_Linear7);fill-rule:nonzero;"/>
        </g>
        <g transform="matrix(25,0,0,25,0,0)">
            <path d="M11.694,15.295C12.336,14.281 13.691,12.722 11.949,15.512C10.534,17.813 11.425,19.29 11.884,19.698C13.207,20.923 13.154,21.747 12.113,21.1C9.879,19.719 10.344,17.391 11.694,15.295Z" style="fill:url(#_Linear8);fill-rule:nonzero;"/>
        </g>
        <g transform="matrix(25,0,0,25,0,0)">
            <path d="M20.988,15.71C20.431,14.519 18.663,11.497 21.073,15.009C23.268,18.187 21.728,20.399 21.453,20.617C21.178,20.835 20.255,21.277 20.523,20.508C20.798,19.739 22.161,18.283 20.988,15.71Z" style="fill:url(#_Linear9);fill-rule:nonzero;"/>
        </g>
        <g transform="matrix(25,0,0,25,0,0)">
            <path d="M11.209,25.102C9.742,24.292 7.613,25.259 8.386,23.067C8.543,22.57 8.156,21.822 8.405,21.338C8.7,20.746 9.336,20.876 9.715,20.481C10.089,20.073 10.325,19.365 11.025,19.474C11.72,19.583 12.185,20.467 12.67,21.556C13.03,22.332 14.301,23.428 14.215,24.299C14.111,25.633 12.65,25.885 11.209,25.102Z" style="fill:url(#_Linear10);fill-rule:nonzero;"/>
        </g>
        <g transform="matrix(25,0,0,25,0,0)">
            <path d="M9.877,20.64C9.52,21.031 8.865,20.937 8.602,21.448C8.433,21.776 8.617,22.28 8.642,22.639C8.673,23.082 8.305,23.711 8.492,24.09C8.703,24.515 9.653,24.46 10.071,24.521C11.102,24.672 12.806,26.007 13.739,24.941C14.65,23.9 12.898,22.583 12.468,21.657C12.189,21.029 11.771,19.825 10.992,19.703C10.443,19.618 10.193,20.294 9.877,20.64ZM11.058,19.245C12.028,19.397 12.513,20.654 12.871,21.457C13.414,22.623 15.275,23.876 14.069,25.253C12.973,26.504 11.244,25.16 10.009,24.98C9.392,24.89 8.419,24.955 8.096,24.302C7.818,23.74 8.236,23.232 8.197,22.672C8.164,22.195 7.976,21.683 8.208,21.231C8.525,20.595 9.139,20.749 9.555,20.319C9.998,19.833 10.263,19.121 11.058,19.245Z" style="fill:rgb(230,140,63);"/>
        </g>
        <g transform="matrix(25,0,0,25,0,0)">
            <path d="M21.381,24.728C22.456,23.374 24.846,23.653 23.235,21.795C22.895,21.393 22.999,20.535 22.58,20.168C22.089,19.719 21.545,20.086 21.047,19.855C20.549,19.603 20.026,19.12 19.416,19.46C18.807,19.807 18.742,20.706 18.683,21.89C18.63,22.741 17.884,24.163 18.283,24.946C18.86,26.157 20.36,25.994 21.381,24.728Z" style="fill:url(#_Linear11);fill-rule:nonzero;"/>
        </g>
        <g transform="matrix(25,0,0,25,0,0)">
            <path d="M21.81,19.698C22.085,19.691 22.415,19.71 22.725,19.993C23.11,20.332 23.114,20.887 23.259,21.351C23.431,21.901 24.034,22.215 23.998,22.86C23.939,23.914 22.114,24.168 21.552,24.876C21.012,25.545 20.33,25.943 19.682,25.997C18.7,26.078 17.889,25.252 17.946,24.244C17.993,23.428 18.409,22.686 18.459,21.876C18.488,21.29 18.52,20.746 18.626,20.305C18.733,19.859 18.926,19.475 19.308,19.257C20.145,18.789 20.954,19.721 21.81,19.698ZM19.522,19.664C19.295,19.793 19.151,20.032 19.059,20.417C18.965,20.807 18.934,21.307 18.904,21.905C18.854,22.716 18.438,23.457 18.391,24.271C18.35,24.997 18.908,25.596 19.647,25.535C20.148,25.493 20.727,25.176 21.209,24.58C21.64,24.037 23.514,23.534 23.553,22.833C23.578,22.375 22.977,21.946 22.835,21.494C22.725,21.141 22.719,20.593 22.436,20.345C22.255,20.18 22.064,20.155 21.821,20.161C21.116,20.18 20.176,19.299 19.522,19.664Z" style="fill:rgb(230,140,63);"/>
        </g>
        <g transform="matrix(25,0,0,25,0,0)">
            <path d="M20.916,22.917C22.579,20.365 21.341,20.386 20.922,20.188C20.503,19.984 20.064,19.583 19.573,19.862C19.081,20.147 19.055,20.882 19.042,21.849C19.023,22.543 18.466,23.707 18.8,24.353C19.206,25.109 20.189,24.013 20.916,22.917Z" style="fill:url(#_Linear12);fill-rule:nonzero;"/>
        </g>
        <g transform="matrix(25,0,0,25,0,0)">
            <path d="M10.868,23.285C8.379,21.61 9.545,21.039 9.918,20.773C10.37,20.433 10.377,19.78 10.934,19.841C11.49,19.902 11.818,20.617 12.191,21.502C12.466,22.135 13.423,22.978 13.351,23.707C13.259,24.564 11.942,23.999 10.868,23.285Z" style="fill:url(#_Linear13);fill-rule:nonzero;"/>
        </g>
        <g transform="matrix(25,0,0,25,0,0)">
            <path d="M21.748,19.936C21.552,20.29 20.753,20.848 20.222,20.698C19.678,20.555 19.429,19.759 19.541,19.16C19.639,18.48 20.222,18.446 20.956,18.786C21.735,19.154 21.977,19.467 21.748,19.936Z" style="fill-rule:nonzero;"/>
        </g>
        <g transform="matrix(25,0,0,25,0,0)">
            <path d="M21.211,19.739C21.086,19.984 20.562,20.372 20.196,20.27C19.829,20.168 19.645,19.616 19.704,19.201C19.757,18.732 20.15,18.704 20.648,18.936C21.185,19.194 21.355,19.412 21.211,19.739Z" style="fill:url(#_Linear14);fill-rule:nonzero;"/>
        </g>
        <g transform="matrix(25,0,0,25,0,0)">
            <path d="M14.437,10.858C14.699,10.606 15.335,9.837 16.54,10.64C16.763,10.79 16.946,10.803 17.372,10.994C18.23,11.361 17.824,12.246 16.907,12.545C16.514,12.675 16.16,13.172 15.453,13.124C14.844,13.09 14.686,12.675 14.313,12.45C13.651,12.062 13.553,11.538 13.913,11.259C14.274,10.98 14.411,10.878 14.437,10.858Z" style="fill:url(#_Linear15);fill-rule:nonzero;"/>
        </g>
        <g transform="matrix(25,0,0,25,0,0)">
            <path d="M13.993,11.37C13.856,11.476 13.813,11.617 13.858,11.773C13.951,12.094 14.622,12.535 14.878,12.75C15.024,12.873 15.191,12.97 15.461,12.985C16.039,13.024 16.36,12.579 16.867,12.413C17.2,12.304 17.904,11.888 17.671,11.412C17.472,11.005 16.801,10.98 16.468,10.756C15.894,10.374 15.476,10.377 15.179,10.484C14.853,10.602 14.289,11.142 13.993,11.37ZM15.091,10.222C15.478,10.082 15.981,10.102 16.613,10.523C17.028,10.802 17.659,10.775 17.909,11.286C18.228,11.937 17.456,12.512 16.947,12.678C16.403,12.857 16.098,13.306 15.445,13.262C15.106,13.243 14.888,13.116 14.71,12.966C14.341,12.656 13.717,12.361 13.574,11.869C13.495,11.597 13.61,11.32 13.833,11.147C14.194,10.868 14.682,10.369 15.091,10.222Z" style="fill:rgb(230,140,63);"/>
        </g>
        <g transform="matrix(25,0,0,25,0,0)">
            <path d="M17.475,11.567C17.477,11.618 17.44,11.662 17.39,11.665C16.697,11.704 16.21,12.495 15.427,12.495C14.989,12.495 14.642,12.284 14.394,12.08C14.344,12.04 13.903,11.7 13.903,11.613C13.903,11.562 13.943,11.52 13.993,11.52C14.085,11.52 14.363,11.822 14.466,11.907C14.7,12.098 15.046,12.31 15.427,12.31C16.202,12.31 16.678,11.52 17.381,11.48C17.43,11.477 17.472,11.516 17.475,11.567Z" style="fill:rgb(230,140,63);"/>
        </g>
        <g transform="matrix(25,0,0,25,0,0)">
            <path d="M14.844,10.789C14.975,10.667 15.388,10.333 15.932,10.674C16.049,10.742 16.167,10.817 16.338,10.919C16.685,11.13 16.515,11.436 16.095,11.626C15.905,11.708 15.591,11.885 15.355,11.871C15.093,11.844 14.916,11.667 14.746,11.552C14.425,11.334 14.445,11.15 14.595,11.007C14.707,10.898 14.831,10.796 14.844,10.789Z" style="fill:url(#_Linear16);fill-rule:nonzero;"/>
        </g>
    </g>
    <defs>
        <linearGradient id="_Linear1" x1="0" y1="0" x2="1" y2="0" gradientUnits="userSpaceOnUse" gradientTransform="matrix(-0.2214,2.99981,-2.99981,-0.2214,16.0578,6.30617)"><stop offset="0" style="stop-color:white;stop-opacity:0.8"/><stop offset="1" style="stop-color:white;stop-opacity:0"/></linearGradient>
        <linearGradient id="_Linear2" x1="0" y1="0" x2="1" y2="0" gradientUnits="userSpaceOnUse" gradientTransform="matrix(-1.646,-5.4005,5.4005,-1.646,12.8966,22.6721)"><stop offset="0" style="stop-color:rgb(255,238,215);stop-opacity:1"/><stop offset="1" style="stop-color:rgb(189,191,194);stop-opacity:1"/></linearGradient>
        <linearGradient id="_Linear3" x1="0" y1="0" x2="1" y2="0" gradientUnits="userSpaceOnUse" gradientTransform="matrix(-1.646,-5.4005,5.4005,-1.646,12.8966,22.6721)"><stop offset="0" style="stop-color:rgb(255,238,215);stop-opacity:1"/><stop offset="1" style="stop-color:rgb(189,191,194);stop-opacity:1"/></linearGradient>
        <linearGradient id="_Linear4" x1="0" y1="0" x2="1" y2="0" gradientUnits="userSpaceOnUse" gradientTransform="matrix(-0.0933,0.69874,-0.69874,-0.0933,16.6681,9.65546)"><stop offset="0" style="stop-color:white;stop-opacity:0.65"/><stop offset="1" style="stop-color:white;stop-opacity:0"/></linearGradient>
        <linearGradient id="_Linear5" x1="0" y1="0" x2="1" y2="0" gradientUnits="userSpaceOnUse" gradientTransform="matrix(0.1004,0.56536,-0.56536,0.1004,14.434,9.78294)"><stop offset="0" style="stop-color:white;stop-opacity:0.65"/><stop offset="1" style="stop-color:white;stop-opacity:0"/></linearGradient>
        <linearGradient id="_Linear6" x1="0" y1="0" x2="1" y2="0" gradientUnits="userSpaceOnUse" gradientTransform="matrix(0.0167,3.9966,-3.9966,0.0167,15.7613,15.6306)"><stop offset="0" style="stop-color:white;stop-opacity:0.8"/><stop offset="1" style="stop-color:white;stop-opacity:0"/></linearGradient>
        <linearGradient id="_Linear7" x1="0" y1="0" x2="1" y2="0" gradientUnits="userSpaceOnUse" gradientTransform="matrix(0.0184,1.5891,-1.5891,0.0184,15.8504,13.1247)"><stop offset="0" style="stop-color:white;stop-opacity:0.65"/><stop offset="1" style="stop-color:white;stop-opacity:0"/></linearGradient>
        <linearGradient id="_Linear8" x1="0" y1="0" x2="1" y2="0" gradientUnits="userSpaceOnUse" gradientTransform="matrix(3.57089e-16,5.8317,-5.8317,3.57089e-16,11.72,14.1055)"><stop offset="0" style="stop-color:white;stop-opacity:0.65"/><stop offset="1" style="stop-color:white;stop-opacity:0"/></linearGradient>
        <linearGradient id="_Linear9" x1="0" y1="0" x2="1" y2="0" gradientUnits="userSpaceOnUse" gradientTransform="matrix(-0.0022,5.2693,-5.2693,-0.0022,21.033,13.5359)"><stop offset="0" style="stop-color:white;stop-opacity:0.65"/><stop offset="1" style="stop-color:white;stop-opacity:0"/></linearGradient>
        <linearGradient id="_Linear10" x1="0" y1="0" x2="1" y2="0" gradientUnits="userSpaceOnUse" gradientTransform="matrix(-0.8932,2.984,-2.984,-0.8932,11.4286,22.4374)"><stop offset="0" style="stop-color:rgb(255,166,63);stop-opacity:1"/><stop offset="1" style="stop-color:rgb(255,255,0);stop-opacity:1"/></linearGradient>
        <linearGradient id="_Linear11" x1="0" y1="0" x2="1" y2="0" gradientUnits="userSpaceOnUse" gradientTransform="matrix(2.3836,3.2501,-3.2501,2.3836,19.882,21.53)"><stop offset="0" style="stop-color:rgb(255,166,63);stop-opacity:1"/><stop offset="1" style="stop-color:rgb(255,255,0);stop-opacity:1"/></linearGradient>
        <linearGradient id="_Linear12" x1="0" y1="0" x2="1" y2="0" gradientUnits="userSpaceOnUse" gradientTransform="matrix(-0.8335,3.9272,-3.9272,-0.8335,20.5198,18.9333)"><stop offset="0" style="stop-color:white;stop-opacity:0.65"/><stop offset="1" style="stop-color:white;stop-opacity:0"/></linearGradient>
        <linearGradient id="_Linear13" x1="0" y1="0" x2="1" y2="0" gradientUnits="userSpaceOnUse" gradientTransform="matrix(0.1653,4.4197,-4.4197,0.1653,11.2464,19.9042)"><stop offset="0" style="stop-color:white;stop-opacity:0.65"/><stop offset="1" style="stop-color:white;stop-opacity:0"/></linearGradient>
        <linearGradient id="_Linear14" x1="0" y1="0" x2="1" y2="0" gradientUnits="userSpaceOnUse" gradientTransform="matrix(0.1933,1.3206,-1.3206,0.1933,20.3755,18.8616)"><stop offset="0" style="stop-color:white;stop-opacity:0.65"/><stop offset="1" style="stop-color:white;stop-opacity:0"/></linearGradient>
        <linearGradient id="_Linear15" x1="0" y1="0" x2="1" y2="0" gradientUnits="userSpaceOnUse" gradientTransform="matrix(0.0161,2.3258,-2.3258,0.0161,15.7644,10.784)"><stop offset="0" style="stop-color:rgb(255,166,63);stop-opacity:1"/><stop offset="1" style="stop-color:rgb(255,255,0);stop-opacity:1"/></linearGradient>
        <linearGradient id="_Linear16" x1="0" y1="0" x2="1" y2="0" gradientUnits="userSpaceOnUse" gradientTransform="matrix(-0.0044,1.2298,-1.2298,-0.0044,15.5106,10.5638)"><stop offset="0" style="stop-color:white;stop-opacity:0.65"/><stop offset="1" style="stop-color:white;stop-opacity:0"/></linearGradient>
    </defs>
</svg>
